<svg width="50" height="50" xmlns="http://www.w3.org/2000/svg" viewBox="0 0 100 100" preserveAspectRatio="xMidYMid" class="uil-default"><path fill="none" class="bk" d="M0 0h100v100H0z"/><rect x="46" y="40.5" width="8" height="19" rx="5" ry="5" fill="#fff" transform="translate(0 -30)"><animate attributeName="opacity" from="1" to="0" dur="1s" begin="0s" values=".5;.2;.2;.2;.2;.2;.2;.2;.2;.2;1;.7" repeatCount="indefinite"/></rect><rect x="46" y="40.5" width="8" height="19" rx="5" ry="5" fill="#fff" transform="rotate(30 105.98 65)"><animate attributeName="opacity" from="1" to="0" dur="1s" begin="0s" values=".7;.5;.2;.2;.2;.2;.2;.2;.2;.2;.2;1" repeatCount="indefinite"/></rect><rect x="46" y="40.5" width="8" height="19" rx="5" ry="5" fill="#fff" transform="rotate(60 75.98 65)"><animate attributeName="opacity" from="1" to="0" dur="1s" begin="0s" values="1;.7;.5;.2;.2;.2;.2;.2;.2;.2;.2;.2" repeatCount="indefinite"/></rect><rect x="46" y="40.5" width="8" height="20" rx="5" ry="5" fill="#fff" transform="rotate(90 65 65)"><animate attributeName="opacity" from="1" to="0" dur="1s" begin="0s" values=".2;1;.7;.5;.2;.2;.2;.2;.2;.2;.2;.2" repeatCount="indefinite"/></rect><rect x="46" y="40.5" width="8" height="20" rx="5" ry="5" fill="#fff" transform="rotate(120 58.66 65)"><animate attributeName="opacity" from="1" to="0" dur="1s" begin="0s" values=".2;.2;1;.7;.5;.2;.2;.2;.2;.2;.2;.2" repeatCount="indefinite"/></rect><rect x="46" y="40.5" width="8" height="20" rx="5" ry="5" fill="#fff" transform="rotate(150 54.02 65)"><animate attributeName="opacity" from="1" to="0" dur="1s" begin="0s" values=".2;.2;.2;1;.7;.5;.2;.2;.2;.2;.2;.2" repeatCount="indefinite"/></rect><rect x="46" y="40.5" width="8" height="20" rx="5" ry="5" fill="#fff" transform="rotate(180 50 65)"><animate attributeName="opacity" from="1" to="0" dur="1s" begin="0s" values=".2;.2;.2;.2;1;.7;.5;.2;.2;.2;.2;.2" repeatCount="indefinite"/></rect><rect x="46" y="40.5" width="8" height="20" rx="5" ry="5" fill="#fff" transform="rotate(-150 45.98 65)"><animate attributeName="opacity" from="1" to="0" dur="1s" begin="0s" values=".2;.2;.2;.2;.2;1;.7;.5;.2;.2;.2;.2" repeatCount="indefinite"/></rect><rect x="46" y="40.5" width="8" height="20" rx="5" ry="5" fill="#fff" transform="rotate(-120 41.34 65)"><animate attributeName="opacity" from="1" to="0" dur="1s" begin="0s" values=".2;.2;.2;.2;.2;.2;1;.7;.5;.2;.2;.2" repeatCount="indefinite"/></rect><rect x="46" y="40.5" width="8" height="20" rx="5" ry="5" fill="#fff" transform="rotate(-90 35 65)"><animate attributeName="opacity" from="1" to="0" dur="1s" begin="0s" values=".2;.2;.2;.2;.2;.2;.2;1;.7;.5;.2;.2" repeatCount="indefinite"/></rect><rect x="46" y="40.5" width="8" height="20" rx="5" ry="5" fill="#fff" transform="rotate(-60 24.02 65)"><animate attributeName="opacity" from="1" to="0" dur="1s" begin="0s" values=".2;.2;.2;.2;.2;.2;.2;.2;1;.7;.5;.2" repeatCount="indefinite"/></rect><rect x="46" y="40.5" width="8" height="20" rx="5" ry="5" fill="#fff" transform="rotate(-30 -5.98 65)"><animate attributeName="opacity" from="1" to="0" dur="1s" begin="0s" values=".2;.2;.2;.2;.2;.2;.2;.2;.2;1;.7;.5" repeatCount="indefinite"/></rect></svg>