<svg xmlns="http://www.w3.org/2000/svg" xmlns:xlink="http://www.w3.org/1999/xlink" width="45" height="12" viewBox="0 0 45 12">
    <defs>
        <path id="4jvt290yqa" d="M0 0L9.565 0 9.565 5.394 0 5.394z"/>
    </defs>
    <g fill="none" fill-rule="evenodd">
        <g>
            <g>
                <g>
                    <g>
                        <path fill="#26CEC1" d="M2.627 6.632H.86v3.65h9.578V8.962H2.627v-2.33zM8.67 7.646h1.767V.753H8.67v6.893zM2.504 3.648V2.016h1.224l.032-.002.059.002h.014v.001c.131.004.262.014.394.037.155.026.296.075.422.146s.227.174.305.31c.078.135.117.311.117.53v.889c0 .218-.039.394-.117.53-.078.134-.18.24-.305.315-.126.075-.267.123-.422.146-.156.022-.311.034-.467.034-.14 0-.285-.012-.433-.034-.149-.023-.284-.07-.406-.14-.122-.072-.222-.175-.3-.31-.078-.136-.117-.316-.117-.541v-.28zm-.31 2.348c.392.153.91.23 1.555.23.622 0 1.131-.075 1.527-.225.397-.15.71-.334.94-.552.23-.217.388-.443.477-.675.089-.233.133-.436.133-.609V2.803c0-.166-.044-.366-.133-.603-.089-.236-.248-.462-.478-.676-.23-.214-.542-.395-.939-.546C4.88.828 4.371.753 3.75.753H.738v3.412c0 .166.035.367.105.603.07.237.215.462.433.676.22.214.524.398.917.552zm17.24 2.967h-4.933c-.415 0-.622-.16-.622-.484 0-.187.056-.323.167-.405.11-.083.262-.124.455-.124h4.933c.193 0 .345.041.456.124.111.082.167.218.167.405 0 .323-.208.484-.623.484zm2.173-1.396c-.137-.24-.323-.43-.556-.569-.233-.139-.5-.234-.8-.287-.3-.052-.61-.079-.927-.079h-4.712c-.326 0-.637.027-.933.08-.296.052-.561.147-.795.286-.233.139-.418.329-.555.569-.137.24-.206.548-.206.924 0 .382.07.692.211.929.141.236.326.418.556.546.23.128.494.212.795.253.3.042.609.062.927.062h4.712c.318 0 .627-.02.927-.062.3-.041.565-.125.795-.253.229-.128.414-.31.555-.546.14-.237.211-.547.211-.93 0-.375-.068-.683-.205-.923zM12.973 5.77c.212-.146.408-.305.59-.478.18-.173.344-.358.488-.558.145-.199.265-.4.361-.602.097.202.219.403.367.602.148.2.315.385.5.558.185.173.383.332.594.478.211.147.428.265.65.355l.723-.98c-.334-.21-.623-.433-.867-.67-.245-.236-.445-.516-.6-.839-.156-.322-.272-.704-.35-1.143-.078-.44-.117-.963-.117-1.571V.753h-1.777v.169c0 .608-.04 1.13-.117 1.565-.078.436-.194.817-.35 1.144-.156.326-.356.608-.6.844-.245.237-.534.46-.867.67l.722.98c.222-.09.44-.208.65-.355zm6.295-1.773h.61v2.128h1.768V.753h-1.767V2.68h-.611V.753h-1.756v5.372h1.756V3.997z" transform="translate(-374.000000, -652.000000) translate(179.000000, 622.000000) translate(190.000000, 25.000000) translate(5.000000, 5.000000)"/>
                        <g transform="translate(-374.000000, -652.000000) translate(179.000000, 622.000000) translate(190.000000, 25.000000) translate(5.000000, 5.000000) translate(23.092464, 0.737705)">
                            <mask id="5bcbncij0b" fill="#fff">
                                <use xlink:href="#4jvt290yqa"/>
                            </mask>
                            <path fill="#26CEC1" d="M0 1.655h3.546C3.031 2.884 1.834 3.745.44 3.745H0v1.65h.44c1.86 0 3.483-1.039 4.343-2.577.859 1.538 2.481 2.576 4.342 2.576h.44V3.746h-.44c-1.394 0-2.591-.862-3.107-2.091h3.547V0H0v1.655z" mask="url(#5bcbncij0b)"/>
                        </g>
                        <path fill="#26CEC1" d="M23.092 7.975L27.066 7.975 27.066 10.267 28.684 10.267 28.684 7.975 32.658 7.975 32.658 6.684 23.092 6.684zM43.197 3.559L43.197.75 41.431.75 41.431 7.655 43.197 7.655 43.197 5.136 44.262 5.136 44.262 3.559zM35.849 6.679L34.082 6.679 34.082 10.328 43.238 10.328 43.238 9.01 35.849 9.01zM34.064 4.793v1.452c3.713 0 5.6-1.373 5.694-4.584l.004-.003V.792h-5.719V2.35h4.121c-.296 1.87-1.586 2.442-4.1 2.442" transform="translate(-374.000000, -652.000000) translate(179.000000, 622.000000) translate(190.000000, 25.000000) translate(5.000000, 5.000000)"/>
                    </g>
                </g>
            </g>
        </g>
    </g>
</svg>
