<svg xmlns="http://www.w3.org/2000/svg" width="22" height="23"><g stroke="#333" fill="none" fill-rule="evenodd"><path d="M7.848 11.9c0 1.633-1.363 2.957-3.046 2.957-1.682 0-3.046-1.324-3.046-2.957 0-1.632 1.364-2.956 3.046-2.956 1.683 0 3.046 1.324 3.046 2.956m12.196-7.208a2.941 2.941 0 01-1.524 2.56 3.127 3.127 0 01-3.046-.001 2.941 2.941 0 01-1.522-2.56c0-1.633 1.364-2.957 3.046-2.956 1.682 0 3.046 1.324 3.046 2.957"/><path stroke-width=".8" d="M7.792 10.78l6.344-4.388"/><path d="M20.044 18.965a2.941 2.941 0 00-1.524-2.56 3.127 3.127 0 00-3.046 0 2.944 2.944 0 00-1.522 2.561c0 1.633 1.364 2.956 3.046 2.956 1.682 0 3.046-1.324 3.046-2.957"/><path stroke-width=".8" d="M7.792 13.234l6.344 4.388"/></g></svg>