<svg xmlns="http://www.w3.org/2000/svg" width="32" height="32" viewBox="0 0 32 32">
    <g fill="none" fill-rule="evenodd">
      <g transform="translate(-194 -526) translate(0 88) translate(25 260) translate(170 179)">
          <rect width="30" height="30" fill="#FFF" stroke="#E8E8E8" rx="15"/>
          <path fill="#333" d="M8.283 13.462C7.354 11.778 7 10.42 7 9.502c0-.916.225-1.18.454-1.392.229-.212 1.26-.848 1.435-.967.176-.118.846-.349 1.267.256.42.605 1.212 1.82 1.758 2.626.857 1.143.174 1.645-.046 1.945-.406.554-.64.69-.64 1.37 0 .679 1.9 2.609 2.353 3.084.45.472 2.343 2.13 2.929 2.22.59.089 1.38-.536 1.548-.695.855-.656 1.338-.158 1.731.058.394.216 2.173 1.325 2.724 1.698.519.374.487.951.487.951s-1.07 1.699-1.2 1.902c-.162.238-.551.442-1.427.442s-1.811-.16-4.034-1.383c-1.82-1-3.553-2.567-4.461-3.484-.94-.917-2.534-2.747-3.595-4.671z"/>
      </g>
    </g>
</svg>
